<svg width="1439" height="796" viewBox="0 0 1439 796" fill="none" xmlns="http://www.w3.org/2000/svg">
<g style="mix-blend-mode:soft-light" opacity="0.7">
<path d="M1263.42 180.816L1437.15 80.5164L1437.15 281.115L1263.42 180.816Z" fill="#C4C4C4" fill-opacity="0.4"/>
<path d="M1262.94 580.739L1436.67 480.44L1436.67 681.039L1262.94 580.739Z" fill="#C4C4C4" fill-opacity="0.4"/>
<path d="M919.142 180.816L1092.87 80.5164L1092.87 281.115L919.142 180.816Z" fill="#C4C4C4" fill-opacity="0.4"/>
<path d="M1263.42 380.803L1437.15 280.504L1437.15 481.103L1263.42 380.803Z" fill="#C4C4C4" fill-opacity="0.4"/>
<path d="M918.98 580.739L1092.7 480.44L1092.7 681.039L918.98 580.739Z" fill="#C4C4C4" fill-opacity="0.4"/>
<path d="M919.142 380.803L1092.87 280.504L1092.87 481.103L919.142 380.803Z" fill="#C4C4C4" fill-opacity="0.4"/>
<path d="M1091.28 280.81L1265.01 180.51L1265.01 381.109L1091.28 280.81Z" fill="#C4C4C4" fill-opacity="0.4"/>
<path d="M1091.28 481.1L1265.01 380.8L1265.01 581.399L1091.28 481.1Z" fill="#C4C4C4" fill-opacity="0.4"/>
<path d="M1091.28 680.379L1265.01 580.079L1265.01 780.678L1091.28 680.379Z" fill="#C4C4C4" fill-opacity="0.4"/>
<path d="M747 280.81L920.724 180.51L920.724 381.109L747 280.81Z" fill="#C4C4C4" fill-opacity="0.4"/>
</g>
</svg>
